<?xml version="1.0" standalone="no"?>
<!DOCTYPE svg PUBLIC "-//W3C//DTD SVG 20010904//EN"
 "http://www.w3.org/TR/2001/REC-SVG-20010904/DTD/svg10.dtd">
<svg version="1.0" xmlns="http://www.w3.org/2000/svg"
 width="1419.000000pt" height="1419.000000pt" viewBox="0 0 1419.000000 1419.000000"
 preserveAspectRatio="xMidYMid meet">
<metadata>
Created by potrace 1.11, written by Peter Selinger 2001-2013
</metadata>
<g transform="translate(0.000000,1419.000000) scale(0.100000,-0.100000)"
fill="#000000" stroke="none">
<path d="M7125 13709 c-22 -4 -58 -9 -80 -13 -22 -3 -184 -26 -360 -51 -369
-54 -344 -50 -414 -60 -30 -3 -61 -8 -70 -10 -26 -4 -92 -14 -141 -20 -25 -3
-70 -10 -100 -15 -30 -5 -73 -11 -95 -14 -43 -6 -244 -35 -285 -41 -14 -2 -45
-7 -70 -10 -25 -3 -106 -15 -180 -26 -74 -11 -148 -22 -165 -24 -16 -2 -64 -9
-105 -15 -41 -6 -93 -13 -115 -15 -34 -5 -88 -13 -195 -30 -14 -2 -45 -7 -70
-10 -25 -3 -88 -12 -140 -20 -52 -8 -115 -16 -140 -20 -25 -3 -56 -8 -70 -10
-14 -2 -45 -7 -70 -10 -25 -3 -70 -10 -100 -15 -30 -6 -73 -12 -95 -15 -78 -9
-120 -15 -140 -19 -12 -2 -48 -8 -80 -12 -33 -4 -62 -8 -65 -9 -8 -2 -134 -19
-145 -19 -5 -1 -9 -10 -9 -21 2 -28 13 -115 19 -145 3 -14 7 -41 9 -60 3 -19
8 -53 12 -75 3 -22 7 -46 7 -53 0 -13 17 -12 102 4 11 2 40 7 65 10 25 3 117
17 205 30 88 14 192 29 230 35 122 18 171 25 255 39 30 5 75 12 100 15 92 13
116 16 170 25 30 5 71 12 90 14 43 6 97 14 170 26 30 6 72 12 92 14 21 3 53 7
70 10 116 19 229 36 268 41 25 3 56 8 70 10 40 7 82 14 125 19 22 3 49 8 61
10 12 2 45 7 75 11 30 3 61 8 69 10 8 2 35 7 60 10 43 6 61 9 125 19 17 3 93
14 170 26 77 11 149 22 160 24 11 2 45 7 75 11 30 4 62 9 71 10 28 6 82 14
134 21 28 3 52 7 55 9 3 2 34 6 70 10 36 4 67 8 70 10 3 2 30 6 60 10 55 6 88
11 125 19 22 4 128 18 160 21 11 1 36 -2 55 -6 19 -4 55 -10 80 -14 25 -3 56
-8 70 -10 14 -2 45 -7 70 -10 25 -3 70 -10 100 -15 30 -5 84 -14 120 -19 56
-8 187 -28 310 -46 19 -3 51 -8 70 -11 19 -3 46 -7 60 -9 81 -13 292 -45 330
-50 25 -3 52 -8 60 -10 8 -2 38 -6 65 -10 47 -6 68 -9 133 -20 15 -2 47 -7 72
-10 25 -3 56 -7 70 -10 14 -3 72 -12 130 -20 135 -20 146 -22 200 -31 25 -4
54 -8 65 -10 11 -1 49 -7 85 -13 36 -5 83 -12 105 -16 22 -3 99 -15 170 -26
72 -10 159 -24 195 -29 83 -12 138 -20 170 -25 25 -4 275 -42 335 -50 17 -3
39 -6 50 -9 11 -2 45 -7 75 -11 30 -4 64 -9 75 -11 10 -2 37 -6 60 -9 22 -3
66 -10 99 -16 32 -6 59 -9 61 -7 7 8 55 351 50 357 -4 3 -10 6 -13 7 -4 0 -32
4 -62 8 -30 4 -71 10 -90 12 -19 3 -60 9 -90 14 -30 5 -77 12 -105 15 -27 3
-61 8 -75 10 -14 3 -38 7 -55 9 -16 2 -48 7 -70 10 -22 4 -58 9 -80 11 -22 3
-51 7 -65 10 -14 3 -45 7 -70 10 -25 3 -56 7 -70 10 -14 2 -45 7 -70 10 -43 6
-87 12 -140 20 -14 2 -61 9 -105 15 -44 6 -91 13 -105 15 -66 11 -230 35 -269
40 -23 3 -55 7 -70 9 -14 3 -46 8 -71 11 -25 3 -56 8 -70 10 -40 6 -104 15
-145 20 -21 3 -50 7 -64 10 -28 4 -293 43 -351 51 -19 2 -50 7 -68 10 -17 3
-49 7 -70 9 -20 3 -48 7 -62 10 -14 2 -47 7 -75 10 -27 4 -57 8 -65 10 -8 2
-39 7 -69 10 -30 4 -62 8 -72 10 -9 2 -39 6 -66 10 -26 4 -59 9 -73 11 -14 2
-43 7 -65 10 -41 5 -227 32 -280 39 -36 6 -94 13 -155 21 -25 3 -59 9 -76 13
-37 10 -136 10 -189 0z"/>
<path d="M7060 13024 c-69 -12 -147 -25 -175 -29 -27 -4 -52 -8 -55 -10 -3 -2
-25 -6 -50 -9 -25 -3 -55 -8 -66 -10 -12 -2 -39 -7 -60 -10 -22 -4 -79 -13
-129 -22 -49 -8 -101 -17 -115 -19 -14 -2 -203 -34 -420 -70 -217 -36 -408
-68 -425 -71 -16 -2 -57 -9 -90 -15 -33 -6 -73 -13 -90 -16 -16 -2 -81 -13
-143 -24 -62 -11 -129 -22 -150 -25 -20 -2 -61 -9 -90 -15 -29 -6 -66 -12 -82
-14 -16 -2 -55 -9 -87 -14 -32 -6 -74 -13 -93 -16 -19 -3 -42 -8 -50 -10 -8
-2 -40 -7 -70 -10 -30 -4 -57 -8 -60 -10 -3 -2 -30 -6 -60 -10 -30 -4 -57 -8
-60 -10 -3 -2 -27 -6 -55 -10 -27 -3 -93 -14 -145 -24 l-95 -17 -1 -119 c-2
-180 -33 -313 -114 -481 -167 -348 -528 -615 -1028 -758 -62 -18 -117 -37
-121 -42 -5 -5 -12 -40 -16 -79 -3 -38 -8 -88 -10 -110 -2 -22 -7 -69 -10
-105 -6 -66 -11 -127 -20 -222 -7 -80 -18 -240 -30 -433 -4 -60 -8 -132 -10
-160 -2 -27 -7 -108 -10 -180 -4 -71 -8 -164 -10 -205 -20 -387 -27 -1400 -12
-1765 12 -267 15 -343 21 -420 3 -38 8 -106 11 -150 3 -44 7 -102 10 -130 10
-104 15 -162 20 -225 3 -36 7 -76 10 -90 2 -14 7 -52 10 -85 9 -82 16 -129 22
-135 2 -3 178 -5 390 -5 l386 0 2 -235 c2 -129 6 -264 9 -300 3 -36 8 -96 12
-135 3 -38 7 -81 9 -95 2 -14 7 -51 10 -84 3 -32 10 -90 15 -130 9 -62 15 -95
37 -216 2 -14 11 -59 20 -100 8 -41 17 -86 20 -100 9 -53 56 -231 94 -358 93
-311 221 -616 369 -877 120 -211 332 -507 350 -489 9 10 175 240 253 353 27
38 55 77 63 87 8 11 50 69 94 129 301 416 648 894 704 970 36 50 72 99 80 110
27 38 929 1280 1107 1525 98 135 183 250 188 257 6 7 11 16 11 22 0 5 4 11 8
13 5 2 96 124 203 271 107 148 224 310 261 360 37 51 83 115 102 142 20 28
112 156 206 285 94 129 178 244 186 255 8 11 60 83 116 160 56 77 180 248 276
380 95 132 183 253 195 269 35 45 171 233 252 347 69 97 252 348 269 370 12
14 28 36 36 48 8 13 43 62 78 109 35 48 71 98 80 110 9 13 28 39 42 57 14 18
43 58 65 89 33 46 384 530 768 1060 40 54 77 106 84 115 10 14 16 11 50 -24
75 -79 205 -184 328 -265 119 -78 296 -168 441 -224 48 -18 90 -40 94 -47 7
-13 11 -37 25 -169 4 -30 8 -66 11 -80 2 -14 6 -61 9 -105 3 -44 8 -93 10
-110 2 -16 7 -75 10 -130 4 -55 8 -120 10 -145 26 -366 27 -1618 0 -2200 -2
-52 -7 -156 -10 -230 -3 -74 -8 -169 -10 -210 -3 -41 -7 -122 -10 -180 -8
-167 -17 -275 -22 -280 -2 -3 -172 -6 -376 -6 -205 -1 -385 -2 -402 -3 l-30
-1 0 -283 c0 -244 -9 -501 -20 -602 -5 -46 -16 -155 -21 -205 -2 -25 -6 -61
-9 -80 -3 -19 -8 -53 -11 -75 -8 -57 -23 -156 -28 -180 -2 -11 -11 -58 -20
-105 -9 -47 -18 -94 -20 -105 -9 -47 -78 -322 -90 -359 -8 -23 -23 -72 -35
-111 -85 -267 -258 -666 -343 -787 -10 -14 -18 -29 -18 -33 0 -15 -173 -268
-248 -361 -82 -104 -232 -260 -295 -308 -20 -16 -37 -32 -37 -37 0 -13 183
-289 191 -289 14 0 150 120 250 221 381 384 661 858 860 1452 67 202 156 551
174 687 3 25 8 52 10 60 4 14 7 29 19 108 3 15 7 50 11 77 3 28 7 59 9 70 2
11 7 54 11 95 4 41 9 83 10 92 10 49 20 296 20 478 0 113 3 207 7 210 3 3 180
5 392 5 362 0 386 1 387 17 1 10 2 21 3 26 2 8 19 140 21 162 2 22 16 160 20
195 2 16 7 72 11 125 3 52 8 106 9 120 2 14 6 81 10 150 4 69 8 141 10 160 12
118 20 528 20 1005 0 644 -9 969 -40 1470 -3 39 -7 111 -10 160 -3 50 -7 115
-10 145 -2 30 -7 91 -10 135 -3 44 -8 100 -10 125 -2 25 -7 77 -10 115 -7 84
-14 164 -20 225 -3 25 -7 72 -11 105 -6 64 -8 68 -27 71 -32 6 -132 35 -217
64 -432 148 -728 373 -899 684 -42 74 -105 251 -116 320 -3 22 -7 41 -9 43 -2
2 -17 -15 -33 -39 -16 -24 -45 -65 -64 -93 -122 -174 -169 -244 -169 -249 0
-5 -343 -483 -493 -686 -23 -30 -55 -74 -71 -97 -17 -24 -45 -62 -62 -85 -48
-65 -994 -1368 -1023 -1409 -14 -20 -53 -73 -86 -119 -33 -45 -67 -92 -75
-105 -9 -13 -25 -36 -37 -52 -12 -15 -105 -143 -207 -283 -102 -140 -192 -264
-200 -275 -8 -11 -75 -103 -149 -205 -256 -353 -1288 -1775 -1307 -1800 -10
-14 -50 -68 -87 -120 -38 -52 -373 -513 -744 -1025 -371 -511 -742 -1023 -825
-1137 -82 -114 -152 -207 -155 -207 -8 -1 -88 172 -146 314 -79 193 -194 567
-227 735 -3 14 -7 36 -10 50 -22 102 -62 328 -71 400 -3 25 -7 61 -10 80 -33
235 -50 535 -50 888 l0 262 -25 1 c-14 1 -195 2 -402 3 -207 1 -379 3 -381 6
-3 3 -8 55 -11 115 -3 61 -8 144 -10 185 -9 134 -16 272 -22 425 -3 83 -7 184
-9 225 -12 228 -19 655 -19 1115 0 564 7 814 29 1145 15 218 19 268 35 405 6
44 13 107 16 140 10 94 13 97 105 129 111 39 341 157 459 235 202 135 310 235
481 449 6 7 33 51 60 97 93 158 144 310 165 490 3 28 9 53 13 57 3 4 92 21
196 38 105 17 201 33 215 35 14 2 42 7 64 10 21 4 48 9 60 11 11 2 37 7 56 10
19 3 60 9 90 14 30 5 69 12 85 14 17 3 59 10 95 16 36 6 92 15 125 20 33 6 72
12 88 15 104 19 157 28 187 31 19 3 73 12 120 20 47 8 101 17 120 20 29 4 149
24 423 69 15 3 42 7 60 10 17 3 43 7 57 10 23 4 61 10 120 20 14 2 79 13 145
24 66 11 138 23 160 26 22 3 63 10 90 15 28 5 68 12 89 15 21 3 49 8 62 11 12
3 46 1 76 -5 29 -5 71 -13 93 -16 22 -3 65 -10 95 -15 30 -5 71 -12 90 -15 19
-3 58 -10 85 -15 28 -5 70 -12 95 -16 25 -4 54 -8 65 -9 25 -4 202 -34 235
-40 14 -2 192 -32 395 -65 204 -34 384 -64 400 -66 70 -12 210 -32 211 -31 1
1 5 20 8 42 4 22 16 87 27 145 35 184 36 167 -14 174 -24 4 -55 9 -68 11 -13
2 -175 29 -359 60 -393 65 -332 55 -600 100 -118 20 -228 38 -245 41 -16 2
-41 6 -55 9 -14 3 -41 7 -60 10 -19 3 -46 8 -60 10 -14 3 -40 7 -58 10 -18 2
-45 6 -60 10 -15 3 -40 7 -57 9 -16 2 -70 11 -120 20 -104 18 -92 18 -255 -10z"/>
<path d="M2772 12920 c-246 -65 -431 -237 -509 -475 -39 -121 -42 -278 -7
-400 28 -99 31 -120 20 -180 -9 -56 -53 -367 -62 -440 -3 -33 -8 -68 -10 -78
-2 -10 -6 -48 -9 -85 -4 -37 -8 -78 -10 -92 -4 -28 -12 -96 -20 -180 -3 -30
-8 -73 -10 -95 -4 -37 -8 -76 -20 -210 -10 -110 -17 -193 -20 -245 -2 -30 -6
-84 -9 -120 -3 -36 -8 -101 -11 -145 -3 -44 -7 -109 -10 -145 -2 -36 -7 -126
-10 -200 -4 -74 -8 -164 -10 -200 -24 -413 -24 -1564 0 -1905 2 -27 6 -97 9
-155 13 -209 26 -407 31 -440 2 -14 6 -65 10 -114 4 -50 8 -97 10 -105 1 -9 6
-52 9 -96 4 -44 9 -91 11 -105 2 -14 7 -54 10 -90 4 -36 8 -72 10 -80 1 -8 6
-42 9 -75 4 -33 9 -71 11 -85 2 -14 7 -45 10 -70 4 -25 8 -56 10 -70 2 -14 9
-61 15 -105 6 -44 15 -102 20 -130 5 -27 12 -65 15 -82 3 -18 7 -48 10 -65 3
-18 12 -69 20 -113 8 -44 17 -98 21 -120 3 -22 8 -43 10 -46 2 -3 6 -21 9 -40
9 -55 42 -208 81 -371 20 -84 38 -162 40 -172 6 -30 65 -248 74 -276 5 -14 23
-74 40 -135 142 -502 394 -1109 648 -1560 271 -483 585 -883 1001 -1275 44
-41 255 -213 322 -262 441 -325 913 -551 1455 -697 61 -17 122 -32 135 -35 13
-2 43 -9 67 -14 32 -7 44 -7 47 1 3 10 22 103 61 296 3 14 7 28 10 32 7 12 -7
17 -72 28 -264 45 -524 133 -821 276 -455 221 -916 578 -1278 991 -595 677
-1032 1535 -1332 2614 -52 189 -136 542 -158 669 -3 19 -7 37 -9 40 -2 3 -7
24 -10 46 -7 44 -23 136 -31 175 -9 44 -31 177 -39 230 -6 45 -36 247 -41 280
-2 14 -6 48 -9 75 -4 28 -8 61 -11 75 -2 14 -7 55 -10 92 -3 37 -7 75 -9 85
-2 10 -7 54 -10 98 -4 44 -9 92 -11 106 -3 14 -7 60 -10 103 -2 42 -7 96 -10
119 -2 23 -7 85 -10 137 -3 52 -8 131 -11 175 -32 521 -37 1359 -9 1960 7 170
16 332 20 375 2 25 7 92 10 150 4 58 8 123 9 145 2 22 6 83 10 135 4 52 9 111
11 130 2 19 7 69 10 110 3 41 7 91 10 110 2 19 7 69 10 110 4 41 8 86 10 100
2 14 7 59 10 100 3 41 8 86 10 100 2 14 6 54 10 90 4 36 8 76 10 90 2 14 7 52
10 85 3 33 7 71 9 85 3 14 10 74 17 133 10 93 14 107 28 101 61 -28 193 -66
249 -73 420 -51 790 277 794 704 3 313 -207 595 -510 687 -97 29 -273 33 -370
8z m306 -338 c189 -73 288 -286 222 -476 -53 -153 -191 -255 -350 -257 -70 -1
-109 6 -149 27 -14 8 -31 14 -38 14 -28 0 -133 113 -165 178 -30 59 -33 76
-33 152 0 143 54 247 166 322 101 68 235 83 347 40z"/>
<path d="M11409 12936 c-2 -2 -22 -6 -44 -10 -60 -8 -100 -22 -179 -60 -321
-158 -473 -524 -360 -866 109 -327 425 -520 779 -477 54 7 162 40 208 64 16 8
30 13 32 11 3 -3 32 -232 40 -318 3 -25 7 -61 10 -80 5 -36 14 -119 20 -180 2
-19 6 -60 9 -90 3 -30 8 -75 11 -100 2 -25 7 -67 10 -95 3 -27 7 -77 10 -110
3 -33 7 -85 10 -115 5 -52 9 -94 20 -235 6 -75 13 -175 20 -285 3 -47 7 -107
10 -135 3 -27 7 -104 10 -170 3 -66 8 -158 10 -205 25 -529 25 -1455 0 -1875
-17 -282 -22 -355 -30 -445 -3 -30 -7 -86 -10 -125 -3 -38 -7 -86 -10 -105 -5
-45 -13 -119 -20 -195 -3 -33 -8 -71 -10 -85 -2 -14 -6 -52 -10 -85 -4 -32 -9
-68 -11 -78 -2 -11 -6 -45 -9 -76 -3 -31 -9 -81 -15 -111 -5 -30 -19 -116 -31
-190 -42 -272 -113 -630 -174 -870 -20 -80 -38 -153 -40 -163 -8 -40 -71 -254
-122 -417 -289 -923 -702 -1687 -1248 -2310 -64 -73 -324 -330 -400 -395 -391
-337 -786 -572 -1224 -731 -112 -41 -344 -106 -418 -118 -15 -2 -47 -7 -70
-11 -24 -4 -43 -10 -43 -15 0 -4 11 -63 25 -131 34 -162 33 -162 34 -179 3
-37 14 -39 116 -15 550 127 1107 378 1550 699 378 273 734 633 1024 1033 116
161 321 480 321 500 0 4 6 14 14 22 13 16 81 143 164 306 71 141 153 322 218
485 19 47 39 94 44 105 63 138 294 856 324 1009 3 12 19 77 36 146 18 69 34
136 36 150 3 14 7 32 10 40 18 49 137 682 159 840 3 25 10 70 15 100 5 30 12
78 15 105 4 28 8 61 10 75 4 24 20 155 31 250 3 25 7 56 9 70 2 14 7 58 11 99
3 41 7 82 9 91 2 9 6 61 10 116 4 54 8 106 10 114 2 8 6 62 10 120 4 58 8 121
10 140 4 45 17 247 20 330 2 36 7 151 11 255 16 363 9 1347 -11 1725 -2 41 -6
125 -10 185 -8 165 -14 257 -41 610 -2 39 -7 90 -9 115 -2 25 -7 79 -10 120
-4 41 -8 86 -10 100 -2 14 -7 59 -10 100 -3 41 -8 86 -10 100 -2 14 -6 55 -10
92 -3 37 -7 75 -9 85 -2 10 -7 49 -11 86 -3 37 -8 76 -10 85 -1 9 -6 44 -9 77
-4 33 -8 71 -11 85 -2 14 -7 48 -10 75 -3 28 -8 61 -10 75 -12 74 -38 256 -38
265 1 6 12 48 26 95 71 241 5 510 -168 685 -38 39 -87 84 -108 99 -60 44 -175
93 -259 110 -69 14 -228 22 -239 12z m171 -337 c159 -36 274 -162 298 -326 7
-50 5 -77 -9 -134 -45 -174 -195 -291 -374 -291 -143 0 -275 87 -339 222 -28
59 -31 74 -31 160 0 86 3 101 33 162 77 158 254 246 422 207z"/>
<path d="M5405 11538 c-33 -27 -82 -69 -110 -92 -27 -22 -65 -55 -85 -72 -19
-17 -107 -90 -195 -164 -88 -73 -161 -137 -163 -141 -2 -5 14 -27 35 -49 l38
-40 65 52 c129 101 166 110 237 59 87 -63 143 -170 159 -301 3 -25 5 -491 6
-1035 l0 -991 -81 -108 c-45 -59 -81 -111 -81 -116 0 -4 6 -10 14 -13 8 -3 76
-47 151 -96 75 -50 141 -91 145 -91 5 0 10 -3 12 -8 3 -8 250 -169 271 -178 7
-2 42 19 77 48 251 201 437 352 508 411 l84 69 -38 39 c-21 22 -42 39 -47 39
-7 0 -106 -78 -127 -100 -16 -17 -139 -110 -145 -110 -10 0 -111 87 -152 130
-72 78 -67 -22 -69 1240 -1 745 -5 1150 -12 1180 -18 78 -20 84 -42 143 -34
90 -118 190 -219 258 -47 32 -155 89 -168 89 -4 -1 -35 -24 -68 -52z"/>
<path d="M8382 7169 c-348 -205 -622 -507 -812 -893 -152 -311 -212 -571 -205
-901 2 -93 6 -180 8 -192 3 -11 9 -43 13 -70 5 -26 8 -50 9 -53 87 -413 290
-745 600 -983 158 -120 360 -221 547 -271 l66 -18 58 40 c208 141 463 380 601
562 208 276 344 575 389 855 3 22 7 42 9 45 9 15 19 185 19 325 0 155 -5 215
-24 320 -28 148 -27 145 -59 239 -140 411 -428 739 -826 939 -113 57 -256 117
-278 117 -7 0 -59 -27 -115 -61z m-200 -435 c351 -121 653 -331 840 -582 204
-274 310 -618 303 -982 -6 -298 -83 -535 -262 -803 l-65 -98 -44 6 c-137 18
-371 115 -521 215 -169 113 -322 260 -422 405 -130 187 -234 445 -267 660 -4
28 -9 57 -11 65 -2 8 -6 87 -7 175 -6 266 33 461 134 669 56 116 187 306 210
306 5 0 55 -16 112 -36z"/>
<path d="M2958 6382 c-39 -2 -56 -7 -53 -15 2 -7 6 -57 10 -112 3 -55 7 -113
10 -130 2 -16 9 -73 15 -125 6 -52 20 -149 30 -215 10 -66 21 -133 23 -150 3
-16 8 -41 11 -55 3 -14 8 -36 10 -50 74 -417 268 -1082 411 -1405 7 -16 37
-84 65 -150 123 -282 296 -601 460 -845 54 -80 236 -329 249 -340 3 -3 28 -32
56 -65 27 -33 65 -78 85 -100 67 -76 315 -321 380 -376 35 -30 71 -60 78 -67
66 -61 274 -211 417 -300 398 -249 797 -411 1288 -526 29 -7 29 -7 10 -101 -2
-11 -4 -47 -4 -80 1 -203 67 -361 211 -505 142 -142 306 -211 500 -211 375 2
678 279 707 649 6 66 5 124 -3 169 -12 75 -11 78 45 88 124 22 440 120 626
194 889 355 1624 1032 2135 1966 97 177 291 587 305 645 0 3 20 55 44 115 89
229 254 767 275 899 4 21 9 42 12 47 2 5 7 21 9 36 2 16 6 37 9 48 5 18 36
175 51 250 8 44 46 275 50 308 2 15 7 46 10 67 14 107 28 239 39 392 5 56 15
53 -198 53 -125 0 -149 -2 -151 -15 -1 -8 -6 -51 -9 -95 -7 -72 -38 -320 -50
-392 -3 -15 -8 -48 -11 -73 -3 -25 -8 -52 -10 -60 -2 -8 -6 -31 -9 -50 -10
-67 -47 -255 -73 -365 -13 -60 -26 -117 -28 -125 -55 -252 -187 -664 -301
-937 -66 -160 -206 -452 -264 -553 -18 -30 -50 -86 -73 -125 -194 -336 -506
-723 -803 -995 -463 -425 -1051 -747 -1616 -884 -197 -48 -209 -49 -238 -19
-65 68 -192 134 -314 165 -104 27 -276 21 -378 -11 -80 -26 -179 -81 -245
-136 -38 -32 -53 -39 -82 -36 -47 3 -245 52 -357 87 -49 15 -93 28 -99 30 -5
1 -64 23 -130 49 -231 90 -544 254 -740 387 -70 48 -231 165 -260 190 -11 9
-30 25 -41 35 -12 10 -43 36 -70 58 -71 59 -165 148 -273 259 -122 125 -104
105 -200 220 -394 469 -707 1049 -923 1711 -54 167 -136 464 -154 564 -3 14
-7 28 -9 32 -3 4 -7 24 -11 45 -3 22 -11 64 -19 94 -7 30 -16 71 -19 90 -3 19
-8 46 -11 60 -11 51 -17 86 -20 112 -2 15 -8 53 -14 85 -6 32 -13 78 -16 103
-3 25 -8 56 -10 70 -4 25 -9 59 -20 159 -4 30 -8 61 -10 70 -3 16 -17 165 -18
189 0 12 -118 13 -299 4z m4422 -4869 c97 -45 169 -123 200 -218 20 -57 21
-63 20 -132 0 -145 -81 -269 -220 -336 -59 -29 -74 -32 -160 -32 -81 0 -103 4
-152 27 -248 115 -303 443 -104 626 81 75 157 102 271 98 66 -2 93 -8 145 -33z"/>
</g>
</svg>
