<?xml version="1.0" encoding="utf-8"?>
<!-- Generator: Adobe Illustrator 18.0.0, SVG Export Plug-In . SVG Version: 6.00 Build 0)  -->
<!DOCTYPE svg PUBLIC "-//W3C//DTD SVG 1.1//EN" "http://www.w3.org/Graphics/SVG/1.1/DTD/svg11.dtd">
<svg version="1.1" xmlns="http://www.w3.org/2000/svg" xmlns:xlink="http://www.w3.org/1999/xlink" x="0px" y="0px"
	 viewBox="0 0 1000 1000" enable-background="new 0 0 1000 1000" xml:space="preserve">
<g id="Guides">
</g>
<g id="Design">
	<rect x="240" y="240" fill="#272660" width="173.3" height="173.3"/>
	<g>
		<g>
			<g>
				<g>
					<path fill="#2DA8E0" d="M307,301.1l4.3-3.6c1.1,0.4,1.8,1,2.3,1.7c0.5,0.7,0.8,1.7,0.8,2.8v14.5c0,0.4,0.1,0.7,0.2,0.9
						c0.2,0.4,0.7,0.8,1.4,1.3l1.9-1.5l0.6,0.6l-4.6,3.7l-4.2-2.8l1.2-1.5v-13c0-0.9-0.1-1.5-0.2-1.8c-0.2-0.6-0.5-1-0.8-1.3
						c-0.3-0.2-0.5-0.3-0.7-0.3c-0.2,0-0.6,0.2-1,0.5c-0.2,0.2-0.5,0.4-0.6,0.5L307,301.1z"/>
				</g>
				<g>
					<path fill="#2DA8E0" d="M332.5,327.8c2.6,0.9,4.7,2.3,6.1,4.3c1.5,2,2.2,4.3,2.2,7c0,2.6-0.7,5-2,7.2c-1.4,2.2-3.2,4-5.5,5.5
						c-1.7-0.4-3.2-1.1-4.5-2.2c-1.3-1.1-2.4-2.4-3.1-4.1c-0.7-1.6-1.1-3.3-1.1-5c0-2.5,0.7-4.9,2.1-7.3
						C328.1,330.9,330.1,329.1,332.5,327.8z M329.5,331c-1.6,1.8-2.4,4-2.4,6.6c0,1.8,0.4,3.5,1.2,5.1c0.8,1.6,1.9,2.9,3.3,4
						c1.4,1,2.9,1.7,4.4,1.9c0.8-1.1,1.4-2.2,1.8-3.2c0.4-1,0.5-2.1,0.5-3.3c0-1.7-0.3-3.3-1-4.8c-0.7-1.5-1.7-2.8-3-3.8
						C332.9,332.4,331.3,331.6,329.5,331z"/>
				</g>
			</g>
			<g>
				<path fill="#2DA8E0" d="M291.3,297.3L291.3,297.3c0.7,0.4,1.5,0.6,2.4,0.6c2.7,0,5-2.2,5-5s-2.2-5-5-5c-2.7,0-5,2.2-5,5
					c0,0.7,0.1,1.4,0.4,2c-0.3,2-11.4,69.9,27.5,78.2l0.5-2.5C317.2,370.7,282.4,367.7,291.3,297.3z M293.7,290.4
					c1.5,0,2.7,1.2,2.7,2.7s-1.2,2.7-2.7,2.7s-2.7-1.2-2.7-2.7S292.3,290.4,293.7,290.4z"/>
				<polygon fill="#2DA8E0" points="323.6,285 348.3,288.7 348.7,286.2 323.6,282.6 298.5,286.2 298.9,288.7 				"/>
				<path fill="#2DA8E0" d="M358,295c0.3-0.6,0.4-1.3,0.4-2c0-2.7-2.2-5-5-5s-5,2.2-5,5s2.2,5,5,5c0.9,0,1.7-0.2,2.4-0.6l0,0
					c9,70.4-25.9,73.3-25.9,73.3l0.5,2.5C369.4,364.9,358.3,297,358,295z M353.4,290.4c1.5,0,2.7,1.2,2.7,2.7s-1.2,2.7-2.7,2.7
					c-1.5,0-2.7-1.2-2.7-2.7S351.9,290.4,353.4,290.4z"/>
				<path fill="#2DA8E0" d="M353.7,333.8l-2.4-0.1c-2.8,30.4-23.9,32.9-24.1,32.9c-0.9-0.9-2.1-1.5-3.5-1.5c-1.4,0-2.6,0.6-3.5,1.5
					c-0.2,0-21.3-2.5-24.1-32.9l-2.4,0.1c0,0,1.1,29.8,25.3,35.1c-0.1,0.4-0.2,0.8-0.2,1.3c0,2.7,2.2,5,5,5c2.7,0,5-2.2,5-5
					c0-0.4-0.1-0.9-0.2-1.3C352.6,363.6,353.7,333.8,353.7,333.8z M326.2,370.1c0,1.5-1.2,2.7-2.7,2.7s-2.7-1.2-2.7-2.7
					s1.2-2.7,2.7-2.7S326.2,368.6,326.2,370.1z"/>
				<path fill="#2DA8E0" d="M353.9,300.6c-6.8-1.7-8.4-5.5-8.8-7.8l-1.9,2.7c0,0,0,0,0,0.1l-38.5,53c-2-4-3.9-10.1-3.6-19.1l-5.7,0
					c0,0-1.2-17.4,0.2-26.9c0,0,8.3-2.5,8.8-9.5l19.1-3.2l12.6,2.1l0.5-2.5l-13.1-2.2v0l0,0l0,0v0l-21.5,3.6c0,0,1.3,7.2-8.8,9.7
					c0,0-2,17.4-0.2,31.4h5.5c0,0-0.9,12.9,6.5,21.8l1.5-2.1c0,0,0,0,0,0l38.5-53.1c2.6,2.8,6.3,3.9,6.3,3.9
					c1.4,9.5,0.2,26.9,0.2,26.9l-5.7,0c0.7,19.1-8.4,25.3-8.4,25.3l1.4,2.1c10.7-8.6,9.6-24.8,9.6-24.8h5.5
					C355.9,318,353.9,300.6,353.9,300.6z"/>
			</g>
		</g>
	</g>
	<rect x="413.3" y="240" fill="#2DA8E0" width="173.3" height="173.3"/>
	<g>
		<g>
			<g>
				<g>
					<path fill="#272660" d="M480.4,301.1l4.3-3.6c1.1,0.4,1.8,1,2.3,1.7c0.5,0.7,0.8,1.7,0.8,2.8v14.5c0,0.4,0.1,0.7,0.2,0.9
						c0.2,0.4,0.7,0.8,1.4,1.3l1.9-1.5l0.6,0.6l-4.6,3.7l-4.2-2.8l1.2-1.5v-13c0-0.9-0.1-1.5-0.2-1.8c-0.2-0.6-0.5-1-0.8-1.3
						c-0.3-0.2-0.5-0.3-0.7-0.3c-0.2,0-0.6,0.2-1,0.5c-0.2,0.2-0.5,0.4-0.6,0.5L480.4,301.1z"/>
				</g>
				<g>
					<path fill="#272660" d="M505.8,327.8c2.6,0.9,4.7,2.3,6.1,4.3c1.5,2,2.2,4.3,2.2,7c0,2.6-0.7,5-2,7.2c-1.4,2.2-3.2,4-5.5,5.5
						c-1.7-0.4-3.2-1.1-4.5-2.2c-1.3-1.1-2.4-2.4-3.1-4.1c-0.7-1.6-1.1-3.3-1.1-5c0-2.5,0.7-4.9,2.1-7.3
						C501.5,330.9,503.4,329.1,505.8,327.8z M502.8,331c-1.6,1.8-2.4,4-2.4,6.6c0,1.8,0.4,3.5,1.2,5.1c0.8,1.6,1.9,2.9,3.3,4
						c1.4,1,2.9,1.7,4.4,1.9c0.8-1.1,1.4-2.2,1.8-3.2c0.4-1,0.5-2.1,0.5-3.3c0-1.7-0.3-3.3-1-4.8c-0.7-1.5-1.7-2.8-3-3.8
						C506.2,332.4,504.6,331.6,502.8,331z"/>
				</g>
			</g>
			<g>
				<path fill="#272660" d="M464.7,297.3L464.7,297.3c0.7,0.4,1.5,0.6,2.4,0.6c2.7,0,5-2.2,5-5s-2.2-5-5-5c-2.7,0-5,2.2-5,5
					c0,0.7,0.1,1.4,0.4,2c-0.3,2-11.4,69.9,27.5,78.2l0.5-2.5C490.5,370.7,455.7,367.7,464.7,297.3z M467.1,290.4
					c1.5,0,2.7,1.2,2.7,2.7s-1.2,2.7-2.7,2.7c-1.5,0-2.7-1.2-2.7-2.7S465.6,290.4,467.1,290.4z"/>
				<polygon fill="#272660" points="496.9,285 521.6,288.7 522,286.2 496.9,282.6 471.8,286.2 472.2,288.7 				"/>
				<path fill="#272660" d="M531.3,295c0.3-0.6,0.4-1.3,0.4-2c0-2.7-2.2-5-5-5c-2.7,0-5,2.2-5,5s2.2,5,5,5c0.9,0,1.7-0.2,2.4-0.6
					l0,0c9,70.4-25.9,73.3-25.9,73.3l0.5,2.5C542.7,364.9,531.6,297,531.3,295z M526.7,290.4c1.5,0,2.7,1.2,2.7,2.7
					s-1.2,2.7-2.7,2.7s-2.7-1.2-2.7-2.7S525.3,290.4,526.7,290.4z"/>
				<path fill="#272660" d="M527,333.8l-2.4-0.1c-2.8,30.4-23.9,32.9-24.1,32.9c-0.9-0.9-2.1-1.5-3.5-1.5c-1.4,0-2.6,0.6-3.5,1.5
					c-0.2,0-21.3-2.5-24.1-32.9l-2.4,0.1c0,0,1.1,29.8,25.3,35.1c-0.1,0.4-0.2,0.8-0.2,1.3c0,2.7,2.2,5,5,5c2.7,0,5-2.2,5-5
					c0-0.4-0.1-0.9-0.2-1.3C525.9,363.6,527,333.8,527,333.8z M499.6,370.1c0,1.5-1.2,2.7-2.7,2.7c-1.5,0-2.7-1.2-2.7-2.7
					s1.2-2.7,2.7-2.7C498.4,367.4,499.6,368.6,499.6,370.1z"/>
				<path fill="#272660" d="M527.2,300.6c-6.8-1.7-8.4-5.5-8.8-7.8l-1.9,2.7c0,0,0,0,0,0.1l-38.5,53c-2-4-3.9-10.1-3.6-19.1l-5.7,0
					c0,0-1.2-17.4,0.2-26.9c0,0,8.3-2.5,8.8-9.5l19.1-3.2l12.6,2.1l0.5-2.5l-13.1-2.2v0l0,0l0,0v0l-21.5,3.6c0,0,1.3,7.2-8.8,9.7
					c0,0-2,17.4-0.2,31.4h5.5c0,0-0.9,12.9,6.5,21.8l1.5-2.1c0,0,0,0,0,0l38.5-53.1c2.6,2.8,6.3,3.9,6.3,3.9
					c1.4,9.5,0.2,26.9,0.2,26.9l-5.7,0c0.7,19.1-8.4,25.3-8.4,25.3l1.4,2.1c10.7-8.6,9.6-24.8,9.6-24.8h5.5
					C529.2,318,527.2,300.6,527.2,300.6z"/>
			</g>
		</g>
	</g>
	<rect x="586.7" y="240" fill="#2C398D" width="173.3" height="173.3"/>
	<g>
		<g>
			<g>
				<g>
					<path fill="#272660" d="M653.7,301.1l4.3-3.6c1.1,0.4,1.8,1,2.3,1.7c0.5,0.7,0.8,1.7,0.8,2.8v14.5c0,0.4,0.1,0.7,0.2,0.9
						c0.2,0.4,0.7,0.8,1.4,1.3l1.9-1.5l0.6,0.6l-4.6,3.7l-4.2-2.8l1.2-1.5v-13c0-0.9-0.1-1.5-0.2-1.8c-0.2-0.6-0.5-1-0.8-1.3
						c-0.3-0.2-0.5-0.3-0.7-0.3c-0.2,0-0.6,0.2-1,0.5c-0.2,0.2-0.5,0.4-0.6,0.5L653.7,301.1z"/>
				</g>
				<g>
					<path fill="#272660" d="M679.1,327.8c2.6,0.9,4.7,2.3,6.1,4.3c1.5,2,2.2,4.3,2.2,7c0,2.6-0.7,5-2,7.2c-1.4,2.2-3.2,4-5.5,5.5
						c-1.7-0.4-3.2-1.1-4.5-2.2c-1.3-1.1-2.4-2.4-3.1-4.1c-0.7-1.6-1.1-3.3-1.1-5c0-2.5,0.7-4.9,2.1-7.3
						C674.8,330.9,676.7,329.1,679.1,327.8z M676.1,331c-1.6,1.8-2.4,4-2.4,6.6c0,1.8,0.4,3.5,1.2,5.1c0.8,1.6,1.9,2.9,3.3,4
						c1.4,1,2.9,1.7,4.4,1.9c0.8-1.1,1.4-2.2,1.8-3.2c0.4-1,0.5-2.1,0.5-3.3c0-1.7-0.3-3.3-1-4.8c-0.7-1.5-1.7-2.8-3-3.8
						C679.5,332.4,677.9,331.6,676.1,331z"/>
				</g>
			</g>
			<g>
				<path fill="#272660" d="M638,297.3L638,297.3c0.7,0.4,1.5,0.6,2.4,0.6c2.7,0,5-2.2,5-5s-2.2-5-5-5s-5,2.2-5,5
					c0,0.7,0.1,1.4,0.4,2c-0.3,2-11.4,69.9,27.5,78.2l0.5-2.5C663.8,370.7,629,367.7,638,297.3z M640.4,290.4c1.5,0,2.7,1.2,2.7,2.7
					s-1.2,2.7-2.7,2.7s-2.7-1.2-2.7-2.7S638.9,290.4,640.4,290.4z"/>
				<polygon fill="#272660" points="670.2,285 695,288.7 695.3,286.2 670.2,282.6 645.2,286.2 645.5,288.7 				"/>
				<path fill="#272660" d="M704.6,295c0.3-0.6,0.4-1.3,0.4-2c0-2.7-2.2-5-5-5s-5,2.2-5,5s2.2,5,5,5c0.9,0,1.7-0.2,2.4-0.6l0,0
					c9,70.4-25.9,73.3-25.9,73.3l0.5,2.5C716,364.9,704.9,297,704.6,295z M700.1,290.4c1.5,0,2.7,1.2,2.7,2.7s-1.2,2.7-2.7,2.7
					c-1.5,0-2.7-1.2-2.7-2.7S698.6,290.4,700.1,290.4z"/>
				<path fill="#272660" d="M700.3,333.8l-2.4-0.1c-2.8,30.4-23.9,32.9-24.1,32.9c-0.9-0.9-2.1-1.5-3.5-1.5c-1.4,0-2.6,0.6-3.5,1.5
					c-0.2,0-21.3-2.5-24.1-32.9l-2.4,0.1c0,0,1.1,29.8,25.3,35.1c-0.1,0.4-0.2,0.8-0.2,1.3c0,2.7,2.2,5,5,5c2.7,0,5-2.2,5-5
					c0-0.4-0.1-0.9-0.2-1.3C699.2,363.6,700.3,333.8,700.3,333.8z M672.9,370.1c0,1.5-1.2,2.7-2.7,2.7c-1.5,0-2.7-1.2-2.7-2.7
					s1.2-2.7,2.7-2.7C671.7,367.4,672.9,368.6,672.9,370.1z"/>
				<path fill="#272660" d="M700.5,300.6c-6.8-1.7-8.4-5.5-8.8-7.8l-1.9,2.7c0,0,0,0,0,0.1l-38.5,53c-2-4-3.9-10.1-3.6-19.1l-5.7,0
					c0,0-1.2-17.4,0.2-26.9c0,0,8.3-2.5,8.8-9.5l19.1-3.2l12.6,2.1l0.5-2.5l-13.1-2.2v0l0,0l0,0v0l-21.5,3.6c0,0,1.3,7.2-8.8,9.7
					c0,0-2,17.4-0.2,31.4h5.5c0,0-0.9,12.9,6.5,21.8l1.5-2.1c0,0,0,0,0,0l38.5-53.1c2.6,2.8,6.3,3.9,6.3,3.9
					c1.4,9.5,0.2,26.9,0.2,26.9l-5.7,0c0.7,19.1-8.4,25.3-8.4,25.3l1.4,2.1c10.7-8.6,9.6-24.8,9.6-24.8h5.5
					C702.5,318,700.5,300.6,700.5,300.6z"/>
			</g>
		</g>
	</g>
	<rect x="240" y="413.3" fill="#1273BA" width="173.3" height="173.3"/>
	<g>
		<g>
			<g>
				<g>
					<path fill="#272660" d="M307,474.4l4.3-3.6c1.1,0.4,1.8,1,2.3,1.7c0.5,0.7,0.8,1.7,0.8,2.8v14.5c0,0.4,0.1,0.7,0.2,0.9
						c0.2,0.4,0.7,0.8,1.4,1.3l1.9-1.5l0.6,0.6l-4.6,3.7l-4.2-2.8l1.2-1.5v-13c0-0.9-0.1-1.5-0.2-1.8c-0.2-0.6-0.5-1-0.8-1.3
						c-0.3-0.2-0.5-0.3-0.7-0.3c-0.2,0-0.6,0.2-1,0.5c-0.2,0.2-0.5,0.4-0.6,0.5L307,474.4z"/>
				</g>
				<g>
					<path fill="#272660" d="M332.5,501.2c2.6,0.9,4.7,2.3,6.1,4.3c1.5,2,2.2,4.3,2.2,7c0,2.6-0.7,5-2,7.2c-1.4,2.2-3.2,4-5.5,5.5
						c-1.7-0.4-3.2-1.1-4.5-2.2c-1.3-1.1-2.4-2.4-3.1-4.1c-0.7-1.6-1.1-3.3-1.1-5c0-2.5,0.7-4.9,2.1-7.3
						C328.1,504.2,330.1,502.4,332.5,501.2z M329.5,504.4c-1.6,1.8-2.4,4-2.4,6.6c0,1.8,0.4,3.5,1.2,5.1c0.8,1.6,1.9,2.9,3.3,4
						c1.4,1,2.9,1.7,4.4,1.9c0.8-1.1,1.4-2.2,1.8-3.2c0.4-1,0.5-2.1,0.5-3.3c0-1.7-0.3-3.3-1-4.8c-0.7-1.5-1.7-2.8-3-3.8
						C332.9,505.7,331.3,504.9,329.5,504.4z"/>
				</g>
			</g>
			<g>
				<path fill="#272660" d="M291.3,470.7L291.3,470.7c0.7,0.4,1.5,0.6,2.4,0.6c2.7,0,5-2.2,5-5c0-2.7-2.2-5-5-5c-2.7,0-5,2.2-5,5
					c0,0.7,0.1,1.4,0.4,2c-0.3,2-11.4,69.9,27.5,78.2l0.5-2.5C317.2,544,282.4,541.1,291.3,470.7z M293.7,463.7
					c1.5,0,2.7,1.2,2.7,2.7c0,1.5-1.2,2.7-2.7,2.7s-2.7-1.2-2.7-2.7C291.1,464.9,292.3,463.7,293.7,463.7z"/>
				<polygon fill="#272660" points="323.6,458.3 348.3,462.1 348.7,459.6 323.6,455.9 298.5,459.6 298.9,462.1 				"/>
				<path fill="#272660" d="M358,468.3c0.3-0.6,0.4-1.3,0.4-2c0-2.7-2.2-5-5-5s-5,2.2-5,5c0,2.7,2.2,5,5,5c0.9,0,1.7-0.2,2.4-0.6
					l0,0c9,70.4-25.9,73.3-25.9,73.3l0.5,2.5C369.4,538.2,358.3,470.3,358,468.3z M353.4,463.7c1.5,0,2.7,1.2,2.7,2.7
					c0,1.5-1.2,2.7-2.7,2.7c-1.5,0-2.7-1.2-2.7-2.7C350.7,464.9,351.9,463.7,353.4,463.7z"/>
				<path fill="#272660" d="M353.7,507.1l-2.4-0.1c-2.8,30.4-23.9,32.9-24.1,32.9c-0.9-0.9-2.1-1.5-3.5-1.5c-1.4,0-2.6,0.6-3.5,1.5
					c-0.2,0-21.3-2.5-24.1-32.9l-2.4,0.1c0,0,1.1,29.8,25.3,35.1c-0.1,0.4-0.2,0.8-0.2,1.3c0,2.7,2.2,5,5,5c2.7,0,5-2.2,5-5
					c0-0.4-0.1-0.9-0.2-1.3C352.6,536.9,353.7,507.1,353.7,507.1z M326.2,543.4c0,1.5-1.2,2.7-2.7,2.7s-2.7-1.2-2.7-2.7
					c0-1.5,1.2-2.7,2.7-2.7S326.2,542,326.2,543.4z"/>
				<path fill="#272660" d="M353.9,473.9c-6.8-1.7-8.4-5.5-8.8-7.8l-1.9,2.7c0,0,0,0,0,0.1l-38.5,53c-2-4-3.9-10.1-3.6-19.1l-5.7,0
					c0,0-1.2-17.4,0.2-26.9c0,0,8.3-2.5,8.8-9.5l19.1-3.2l12.6,2.1l0.5-2.5l-13.1-2.2v0l0,0l0,0v0l-21.5,3.6c0,0,1.3,7.2-8.8,9.7
					c0,0-2,17.4-0.2,31.4h5.5c0,0-0.9,12.9,6.5,21.8l1.5-2.1c0,0,0,0,0,0l38.5-53.1c2.6,2.8,6.3,3.9,6.3,3.9
					c1.4,9.5,0.2,26.9,0.2,26.9l-5.7,0c0.7,19.1-8.4,25.3-8.4,25.3l1.4,2.1c10.7-8.6,9.6-24.8,9.6-24.8h5.5
					C355.9,491.3,353.9,473.9,353.9,473.9z"/>
			</g>
		</g>
	</g>
	<rect x="413.3" y="413.3" fill="#15113D" width="173.3" height="173.3"/>
	<g>
		<g>
			<g>
				<g>
					<path fill="#2DA8E0" d="M480.4,474.4l4.3-3.6c1.1,0.4,1.8,1,2.3,1.7c0.5,0.7,0.8,1.7,0.8,2.8v14.5c0,0.4,0.1,0.7,0.2,0.9
						c0.2,0.4,0.7,0.8,1.4,1.3l1.9-1.5l0.6,0.6l-4.6,3.7L483,492l1.2-1.5v-13c0-0.9-0.1-1.5-0.2-1.8c-0.2-0.6-0.5-1-0.8-1.3
						c-0.3-0.2-0.5-0.3-0.7-0.3c-0.2,0-0.6,0.2-1,0.5c-0.2,0.2-0.5,0.4-0.6,0.5L480.4,474.4z"/>
				</g>
				<g>
					<path fill="#2DA8E0" d="M505.8,501.2c2.6,0.9,4.7,2.3,6.1,4.3c1.5,2,2.2,4.3,2.2,7c0,2.6-0.7,5-2,7.2c-1.4,2.2-3.2,4-5.5,5.5
						c-1.7-0.4-3.2-1.1-4.5-2.2c-1.3-1.1-2.4-2.4-3.1-4.1c-0.7-1.6-1.1-3.3-1.1-5c0-2.5,0.7-4.9,2.1-7.3
						C501.5,504.2,503.4,502.4,505.8,501.2z M502.8,504.4c-1.6,1.8-2.4,4-2.4,6.6c0,1.8,0.4,3.5,1.2,5.1c0.8,1.6,1.9,2.9,3.3,4
						c1.4,1,2.9,1.7,4.4,1.9c0.8-1.1,1.4-2.2,1.8-3.2c0.4-1,0.5-2.1,0.5-3.3c0-1.7-0.3-3.3-1-4.8c-0.7-1.5-1.7-2.8-3-3.8
						C506.2,505.7,504.6,504.9,502.8,504.4z"/>
				</g>
			</g>
			<g>
				<path fill="#2DA8E0" d="M464.7,470.7L464.7,470.7c0.7,0.4,1.5,0.6,2.4,0.6c2.7,0,5-2.2,5-5c0-2.7-2.2-5-5-5s-5,2.2-5,5
					c0,0.7,0.1,1.4,0.4,2c-0.3,2-11.4,69.9,27.5,78.2l0.5-2.5C490.5,544,455.7,541.1,464.7,470.7z M467.1,463.7
					c1.5,0,2.7,1.2,2.7,2.7c0,1.5-1.2,2.7-2.7,2.7c-1.5,0-2.7-1.2-2.7-2.7C464.4,464.9,465.6,463.7,467.1,463.7z"/>
				<polygon fill="#2DA8E0" points="496.9,458.3 521.6,462.1 522,459.6 496.9,455.9 471.8,459.6 472.2,462.1 				"/>
				<path fill="#2DA8E0" d="M531.3,468.3c0.3-0.6,0.4-1.3,0.4-2c0-2.7-2.2-5-5-5c-2.7,0-5,2.2-5,5c0,2.7,2.2,5,5,5
					c0.9,0,1.7-0.2,2.4-0.6l0,0c9,70.4-25.9,73.3-25.9,73.3l0.5,2.5C542.7,538.2,531.6,470.3,531.3,468.3z M526.7,463.7
					c1.5,0,2.7,1.2,2.7,2.7c0,1.5-1.2,2.7-2.7,2.7c-1.5,0-2.7-1.2-2.7-2.7C524.1,464.9,525.3,463.7,526.7,463.7z"/>
				<path fill="#2DA8E0" d="M527,507.1l-2.4-0.1c-2.8,30.4-23.9,32.9-24.1,32.9c-0.9-0.9-2.1-1.5-3.5-1.5c-1.4,0-2.6,0.6-3.5,1.5
					c-0.2,0-21.3-2.5-24.1-32.9l-2.4,0.1c0,0,1.1,29.8,25.3,35.1c-0.1,0.4-0.2,0.8-0.2,1.3c0,2.7,2.2,5,5,5c2.7,0,5-2.2,5-5
					c0-0.4-0.1-0.9-0.2-1.3C525.9,536.9,527,507.1,527,507.1z M499.6,543.4c0,1.5-1.2,2.7-2.7,2.7c-1.5,0-2.7-1.2-2.7-2.7
					c0-1.5,1.2-2.7,2.7-2.7C498.4,540.8,499.6,542,499.6,543.4z"/>
				<path fill="#2DA8E0" d="M527.2,473.9c-6.8-1.7-8.4-5.5-8.8-7.8l-1.9,2.7c0,0,0,0,0,0.1l-38.5,53c-2-4-3.9-10.1-3.6-19.1l-5.7,0
					c0,0-1.2-17.4,0.2-26.9c0,0,8.3-2.5,8.8-9.5l19.1-3.2l12.6,2.1l0.5-2.5l-13.1-2.2v0l0,0l0,0v0l-21.5,3.6c0,0,1.3,7.2-8.8,9.7
					c0,0-2,17.4-0.2,31.4h5.5c0,0-0.9,12.9,6.5,21.8l1.5-2.1c0,0,0,0,0,0l38.5-53.1c2.6,2.8,6.3,3.9,6.3,3.9
					c1.4,9.5,0.2,26.9,0.2,26.9l-5.7,0c0.7,19.1-8.4,25.3-8.4,25.3l1.4,2.1c10.7-8.6,9.6-24.8,9.6-24.8h5.5
					C529.2,491.3,527.2,473.9,527.2,473.9z"/>
			</g>
		</g>
	</g>
	<rect x="586.7" y="413.3" fill="#1273BA" width="173.3" height="173.3"/>
	<g>
		<g>
			<g>
				<g>
					<path fill="#2DA8E0" d="M653.7,474.4l4.3-3.6c1.1,0.4,1.8,1,2.3,1.7c0.5,0.7,0.8,1.7,0.8,2.8v14.5c0,0.4,0.1,0.7,0.2,0.9
						c0.2,0.4,0.7,0.8,1.4,1.3l1.9-1.5l0.6,0.6l-4.6,3.7l-4.2-2.8l1.2-1.5v-13c0-0.9-0.1-1.5-0.2-1.8c-0.2-0.6-0.5-1-0.8-1.3
						c-0.3-0.2-0.5-0.3-0.7-0.3c-0.2,0-0.6,0.2-1,0.5c-0.2,0.2-0.5,0.4-0.6,0.5L653.7,474.4z"/>
				</g>
				<g>
					<path fill="#2DA8E0" d="M679.1,501.2c2.6,0.9,4.7,2.3,6.1,4.3c1.5,2,2.2,4.3,2.2,7c0,2.6-0.7,5-2,7.2c-1.4,2.2-3.2,4-5.5,5.5
						c-1.7-0.4-3.2-1.1-4.5-2.2c-1.3-1.1-2.4-2.4-3.1-4.1c-0.7-1.6-1.1-3.3-1.1-5c0-2.5,0.7-4.9,2.1-7.3
						C674.8,504.2,676.7,502.4,679.1,501.2z M676.1,504.4c-1.6,1.8-2.4,4-2.4,6.6c0,1.8,0.4,3.5,1.2,5.1c0.8,1.6,1.9,2.9,3.3,4
						c1.4,1,2.9,1.7,4.4,1.9c0.8-1.1,1.4-2.2,1.8-3.2c0.4-1,0.5-2.1,0.5-3.3c0-1.7-0.3-3.3-1-4.8c-0.7-1.5-1.7-2.8-3-3.8
						C679.5,505.7,677.9,504.9,676.1,504.4z"/>
				</g>
			</g>
			<g>
				<path fill="#2DA8E0" d="M638,470.7L638,470.7c0.7,0.4,1.5,0.6,2.4,0.6c2.7,0,5-2.2,5-5c0-2.7-2.2-5-5-5s-5,2.2-5,5
					c0,0.7,0.1,1.4,0.4,2c-0.3,2-11.4,69.9,27.5,78.2l0.5-2.5C663.8,544,629,541.1,638,470.7z M640.4,463.7c1.5,0,2.7,1.2,2.7,2.7
					c0,1.5-1.2,2.7-2.7,2.7s-2.7-1.2-2.7-2.7C637.7,464.9,638.9,463.7,640.4,463.7z"/>
				<polygon fill="#2DA8E0" points="670.2,458.3 695,462.1 695.3,459.6 670.2,455.9 645.2,459.6 645.5,462.1 				"/>
				<path fill="#2DA8E0" d="M704.6,468.3c0.3-0.6,0.4-1.3,0.4-2c0-2.7-2.2-5-5-5s-5,2.2-5,5c0,2.7,2.2,5,5,5c0.9,0,1.7-0.2,2.4-0.6
					l0,0c9,70.4-25.9,73.3-25.9,73.3l0.5,2.5C716,538.2,704.9,470.3,704.6,468.3z M700.1,463.7c1.5,0,2.7,1.2,2.7,2.7
					c0,1.5-1.2,2.7-2.7,2.7c-1.5,0-2.7-1.2-2.7-2.7C697.4,464.9,698.6,463.7,700.1,463.7z"/>
				<path fill="#2DA8E0" d="M700.3,507.1l-2.4-0.1c-2.8,30.4-23.9,32.9-24.1,32.9c-0.9-0.9-2.1-1.5-3.5-1.5c-1.4,0-2.6,0.6-3.5,1.5
					c-0.2,0-21.3-2.5-24.1-32.9l-2.4,0.1c0,0,1.1,29.8,25.3,35.1c-0.1,0.4-0.2,0.8-0.2,1.3c0,2.7,2.2,5,5,5c2.7,0,5-2.2,5-5
					c0-0.4-0.1-0.9-0.2-1.3C699.2,536.9,700.3,507.1,700.3,507.1z M672.9,543.4c0,1.5-1.2,2.7-2.7,2.7c-1.5,0-2.7-1.2-2.7-2.7
					c0-1.5,1.2-2.7,2.7-2.7C671.7,540.8,672.9,542,672.9,543.4z"/>
				<path fill="#2DA8E0" d="M700.5,473.9c-6.8-1.7-8.4-5.5-8.8-7.8l-1.9,2.7c0,0,0,0,0,0.1l-38.5,53c-2-4-3.9-10.1-3.6-19.1l-5.7,0
					c0,0-1.2-17.4,0.2-26.9c0,0,8.3-2.5,8.8-9.5l19.1-3.2l12.6,2.1l0.5-2.5l-13.1-2.2v0l0,0l0,0v0l-21.5,3.6c0,0,1.3,7.2-8.8,9.7
					c0,0-2,17.4-0.2,31.4h5.5c0,0-0.9,12.9,6.5,21.8l1.5-2.1c0,0,0,0,0,0l38.5-53.1c2.6,2.8,6.3,3.9,6.3,3.9
					c1.4,9.5,0.2,26.9,0.2,26.9l-5.7,0c0.7,19.1-8.4,25.3-8.4,25.3l1.4,2.1c10.7-8.6,9.6-24.8,9.6-24.8h5.5
					C702.5,491.3,700.5,473.9,700.5,473.9z"/>
			</g>
		</g>
	</g>
	<rect x="240.5" y="586.7" fill="#2C398D" width="173.3" height="173.3"/>
	<g>
		<g>
			<g>
				<g>
					<path fill="#1273BA" d="M307.5,647.8l4.3-3.6c1.1,0.4,1.8,1,2.3,1.7c0.5,0.7,0.8,1.7,0.8,2.8v14.5c0,0.4,0.1,0.7,0.2,0.9
						c0.2,0.4,0.7,0.8,1.4,1.3l1.9-1.5l0.6,0.6l-4.6,3.7l-4.2-2.8l1.2-1.5v-13c0-0.9-0.1-1.5-0.2-1.8c-0.2-0.6-0.5-1-0.8-1.3
						c-0.3-0.2-0.5-0.3-0.7-0.3c-0.2,0-0.6,0.2-1,0.5c-0.2,0.2-0.5,0.4-0.6,0.5L307.5,647.8z"/>
				</g>
				<g>
					<path fill="#1273BA" d="M333,674.5c2.6,0.9,4.7,2.3,6.1,4.3c1.5,2,2.2,4.3,2.2,7c0,2.6-0.7,5-2,7.2c-1.4,2.2-3.2,4-5.5,5.5
						c-1.7-0.4-3.2-1.1-4.5-2.2c-1.3-1.1-2.4-2.4-3.1-4.1c-0.7-1.6-1.1-3.3-1.1-5c0-2.5,0.7-4.9,2.1-7.3
						C328.6,677.5,330.6,675.7,333,674.5z M330,677.7c-1.6,1.8-2.4,4-2.4,6.6c0,1.8,0.4,3.5,1.2,5.1c0.8,1.6,1.9,2.9,3.3,4
						c1.4,1,2.9,1.7,4.4,1.9c0.8-1.1,1.4-2.2,1.8-3.2c0.4-1,0.5-2.1,0.5-3.3c0-1.7-0.3-3.3-1-4.8c-0.7-1.5-1.7-2.8-3-3.8
						C333.4,679,331.8,678.2,330,677.7z"/>
				</g>
			</g>
			<g>
				<path fill="#1273BA" d="M291.8,644L291.8,644c0.7,0.4,1.5,0.6,2.4,0.6c2.7,0,5-2.2,5-5s-2.2-5-5-5c-2.7,0-5,2.2-5,5
					c0,0.7,0.1,1.4,0.4,2c-0.3,2-11.4,69.9,27.5,78.2l0.5-2.5C317.7,717.3,282.9,714.4,291.8,644z M294.2,637c1.5,0,2.7,1.2,2.7,2.7
					s-1.2,2.7-2.7,2.7s-2.7-1.2-2.7-2.7S292.8,637,294.2,637z"/>
				<polygon fill="#1273BA" points="324.1,631.7 348.8,635.4 349.2,632.9 324.1,629.3 299,632.9 299.4,635.4 				"/>
				<path fill="#1273BA" d="M358.5,641.7c0.3-0.6,0.4-1.3,0.4-2c0-2.7-2.2-5-5-5s-5,2.2-5,5s2.2,5,5,5c0.9,0,1.7-0.2,2.4-0.6l0,0
					c9,70.4-25.9,73.3-25.9,73.3l0.5,2.5C369.9,711.5,358.8,643.6,358.5,641.7z M353.9,637c1.5,0,2.7,1.2,2.7,2.7s-1.2,2.7-2.7,2.7
					c-1.5,0-2.7-1.2-2.7-2.7S352.4,637,353.9,637z"/>
				<path fill="#1273BA" d="M354.2,680.5l-2.4-0.1c-2.8,30.4-23.9,32.9-24.1,32.9c-0.9-0.9-2.1-1.5-3.5-1.5c-1.4,0-2.6,0.6-3.5,1.5
					c-0.2,0-21.3-2.5-24.1-32.9l-2.4,0.1c0,0,1.1,29.8,25.3,35.1c-0.1,0.4-0.2,0.8-0.2,1.3c0,2.7,2.2,5,5,5c2.7,0,5-2.2,5-5
					c0-0.4-0.1-0.9-0.2-1.3C353.1,710.2,354.2,680.5,354.2,680.5z M326.7,716.8c0,1.5-1.2,2.7-2.7,2.7s-2.7-1.2-2.7-2.7
					c0-1.5,1.2-2.7,2.7-2.7S326.7,715.3,326.7,716.8z"/>
				<path fill="#1273BA" d="M354.4,647.3c-6.8-1.7-8.4-5.5-8.8-7.8l-1.9,2.7c0,0,0,0,0,0.1l-38.5,53c-2-4-3.9-10.1-3.6-19.1l-5.7,0
					c0,0-1.2-17.4,0.2-26.9c0,0,8.3-2.5,8.8-9.5l19.1-3.2l12.6,2.1l0.5-2.5l-13.1-2.2v0l0,0l0,0v0l-21.5,3.6c0,0,1.3,7.2-8.8,9.7
					c0,0-2,17.4-0.2,31.4h5.5c0,0-0.9,12.9,6.5,21.8l1.5-2.1c0,0,0,0,0,0l38.5-53.1c2.6,2.8,6.3,3.9,6.3,3.9
					c1.4,9.5,0.2,26.9,0.2,26.9l-5.7,0c0.7,19.1-8.4,25.3-8.4,25.3l1.4,2.1c10.7-8.6,9.6-24.8,9.6-24.8h5.5
					C356.4,664.6,354.4,647.3,354.4,647.3z"/>
			</g>
		</g>
	</g>
	<rect x="413.8" y="586.7" fill="#2DA8E0" width="173.3" height="173.3"/>
	<g>
		<g>
			<g>
				<g>
					<path fill="#1273BA" d="M480.9,647.8l4.3-3.6c1.1,0.4,1.8,1,2.3,1.7c0.5,0.7,0.8,1.7,0.8,2.8v14.5c0,0.4,0.1,0.7,0.2,0.9
						c0.2,0.4,0.7,0.8,1.4,1.3l1.9-1.5l0.6,0.6l-4.6,3.7l-4.2-2.8l1.2-1.5v-13c0-0.9-0.1-1.5-0.2-1.8c-0.2-0.6-0.5-1-0.8-1.3
						c-0.3-0.2-0.5-0.3-0.7-0.3c-0.2,0-0.6,0.2-1,0.5c-0.2,0.2-0.5,0.4-0.6,0.5L480.9,647.8z"/>
				</g>
				<g>
					<path fill="#1273BA" d="M506.3,674.5c2.6,0.9,4.7,2.3,6.1,4.3c1.5,2,2.2,4.3,2.2,7c0,2.6-0.7,5-2,7.2c-1.4,2.2-3.2,4-5.5,5.5
						c-1.7-0.4-3.2-1.1-4.5-2.2s-2.4-2.4-3.1-4.1c-0.7-1.6-1.1-3.3-1.1-5c0-2.5,0.7-4.9,2.1-7.3C502,677.5,503.9,675.7,506.3,674.5z
						 M503.3,677.7c-1.6,1.8-2.4,4-2.4,6.6c0,1.8,0.4,3.5,1.2,5.1c0.8,1.6,1.9,2.9,3.3,4c1.4,1,2.9,1.7,4.4,1.9
						c0.8-1.1,1.4-2.2,1.8-3.2c0.4-1,0.5-2.1,0.5-3.3c0-1.7-0.3-3.3-1-4.8c-0.7-1.5-1.7-2.8-3-3.8
						C506.7,679,505.1,678.2,503.3,677.7z"/>
				</g>
			</g>
			<g>
				<path fill="#1273BA" d="M465.2,644L465.2,644c0.7,0.4,1.5,0.6,2.4,0.6c2.7,0,5-2.2,5-5s-2.2-5-5-5c-2.7,0-5,2.2-5,5
					c0,0.7,0.1,1.4,0.4,2c-0.3,2-11.4,69.9,27.5,78.2l0.5-2.5C491,717.3,456.2,714.4,465.2,644z M467.6,637c1.5,0,2.7,1.2,2.7,2.7
					s-1.2,2.7-2.7,2.7c-1.5,0-2.7-1.2-2.7-2.7S466.1,637,467.6,637z"/>
				<polygon fill="#1273BA" points="497.4,631.7 522.1,635.4 522.5,632.9 497.4,629.3 472.3,632.9 472.7,635.4 				"/>
				<path fill="#1273BA" d="M531.8,641.7c0.3-0.6,0.4-1.3,0.4-2c0-2.7-2.2-5-5-5c-2.7,0-5,2.2-5,5s2.2,5,5,5c0.9,0,1.7-0.2,2.4-0.6
					l0,0c9,70.4-25.9,73.3-25.9,73.3l0.5,2.5C543.2,711.5,532.1,643.6,531.8,641.7z M527.2,637c1.5,0,2.7,1.2,2.7,2.7
					s-1.2,2.7-2.7,2.7s-2.7-1.2-2.7-2.7S525.8,637,527.2,637z"/>
				<path fill="#1273BA" d="M527.5,680.5l-2.4-0.1c-2.8,30.4-23.9,32.9-24.1,32.9c-0.9-0.9-2.1-1.5-3.5-1.5c-1.4,0-2.6,0.6-3.5,1.5
					c-0.2,0-21.3-2.5-24.1-32.9l-2.4,0.1c0,0,1.1,29.8,25.3,35.1c-0.1,0.4-0.2,0.8-0.2,1.3c0,2.7,2.2,5,5,5c2.7,0,5-2.2,5-5
					c0-0.4-0.1-0.9-0.2-1.3C526.4,710.2,527.5,680.5,527.5,680.5z M500.1,716.8c0,1.5-1.2,2.7-2.7,2.7c-1.5,0-2.7-1.2-2.7-2.7
					c0-1.5,1.2-2.7,2.7-2.7C498.9,714.1,500.1,715.3,500.1,716.8z"/>
				<path fill="#1273BA" d="M527.7,647.3c-6.8-1.7-8.4-5.5-8.8-7.8l-1.9,2.7c0,0,0,0,0,0.1l-38.5,53c-2-4-3.9-10.1-3.6-19.1l-5.7,0
					c0,0-1.2-17.4,0.2-26.9c0,0,8.3-2.5,8.8-9.5l19.1-3.2l12.6,2.1l0.5-2.5l-13.1-2.2v0l0,0l0,0v0l-21.5,3.6c0,0,1.3,7.2-8.8,9.7
					c0,0-2,17.4-0.2,31.4h5.5c0,0-0.9,12.9,6.5,21.8l1.5-2.1c0,0,0,0,0,0l38.5-53.1c2.6,2.8,6.3,3.9,6.3,3.9
					c1.4,9.5,0.2,26.9,0.2,26.9l-5.7,0c0.7,19.1-8.4,25.3-8.4,25.3l1.4,2.1c10.7-8.6,9.6-24.8,9.6-24.8h5.5
					C529.7,664.6,527.7,647.3,527.7,647.3z"/>
			</g>
		</g>
	</g>
	<rect x="587.2" y="586.7" fill="#272660" width="173.3" height="173.3"/>
	<g>
		<g>
			<g>
				<g>
					<path fill="#1273BA" d="M654.2,647.8l4.3-3.6c1.1,0.4,1.8,1,2.3,1.7c0.5,0.7,0.8,1.7,0.8,2.8v14.5c0,0.4,0.1,0.7,0.2,0.9
						c0.2,0.4,0.7,0.8,1.4,1.3l1.9-1.5l0.6,0.6l-4.6,3.7l-4.2-2.8l1.2-1.5v-13c0-0.9-0.1-1.5-0.2-1.8c-0.2-0.6-0.5-1-0.8-1.3
						c-0.3-0.2-0.5-0.3-0.7-0.3c-0.2,0-0.6,0.2-1,0.5c-0.2,0.2-0.5,0.4-0.6,0.5L654.2,647.8z"/>
				</g>
				<g>
					<path fill="#1273BA" d="M679.6,674.5c2.6,0.9,4.7,2.3,6.1,4.3c1.5,2,2.2,4.3,2.2,7c0,2.6-0.7,5-2,7.2c-1.4,2.2-3.2,4-5.5,5.5
						c-1.7-0.4-3.2-1.1-4.5-2.2s-2.4-2.4-3.1-4.1c-0.7-1.6-1.1-3.3-1.1-5c0-2.5,0.7-4.9,2.1-7.3
						C675.3,677.5,677.2,675.7,679.6,674.5z M676.6,677.7c-1.6,1.8-2.4,4-2.4,6.6c0,1.8,0.4,3.5,1.2,5.1c0.8,1.6,1.9,2.9,3.3,4
						c1.4,1,2.9,1.7,4.4,1.9c0.8-1.1,1.4-2.2,1.8-3.2c0.4-1,0.5-2.1,0.5-3.3c0-1.7-0.3-3.3-1-4.8c-0.7-1.5-1.7-2.8-3-3.8
						C680,679,678.4,678.2,676.6,677.7z"/>
				</g>
			</g>
			<g>
				<path fill="#1273BA" d="M638.5,644L638.5,644c0.7,0.4,1.5,0.6,2.4,0.6c2.7,0,5-2.2,5-5s-2.2-5-5-5s-5,2.2-5,5
					c0,0.7,0.1,1.4,0.4,2c-0.3,2-11.4,69.9,27.5,78.2l0.5-2.5C664.3,717.3,629.5,714.4,638.5,644z M640.9,637c1.5,0,2.7,1.2,2.7,2.7
					s-1.2,2.7-2.7,2.7s-2.7-1.2-2.7-2.7S639.4,637,640.9,637z"/>
				<polygon fill="#1273BA" points="670.7,631.7 695.5,635.4 695.8,632.9 670.7,629.3 645.7,632.9 646,635.4 				"/>
				<path fill="#1273BA" d="M705.1,641.7c0.3-0.6,0.4-1.3,0.4-2c0-2.7-2.2-5-5-5s-5,2.2-5,5s2.2,5,5,5c0.9,0,1.7-0.2,2.4-0.6l0,0
					c9,70.4-25.9,73.3-25.9,73.3l0.5,2.5C716.5,711.5,705.4,643.6,705.1,641.7z M700.6,637c1.5,0,2.7,1.2,2.7,2.7s-1.2,2.7-2.7,2.7
					c-1.5,0-2.7-1.2-2.7-2.7S699.1,637,700.6,637z"/>
				<path fill="#1273BA" d="M700.8,680.5l-2.4-0.1c-2.8,30.4-23.9,32.9-24.1,32.9c-0.9-0.9-2.1-1.5-3.5-1.5c-1.4,0-2.6,0.6-3.5,1.5
					c-0.2,0-21.3-2.5-24.1-32.9l-2.4,0.1c0,0,1.1,29.8,25.3,35.1c-0.1,0.4-0.2,0.8-0.2,1.3c0,2.7,2.2,5,5,5c2.7,0,5-2.2,5-5
					c0-0.4-0.1-0.9-0.2-1.3C699.7,710.2,700.8,680.5,700.8,680.5z M673.4,716.8c0,1.5-1.2,2.7-2.7,2.7c-1.5,0-2.7-1.2-2.7-2.7
					c0-1.5,1.2-2.7,2.7-2.7C672.2,714.1,673.4,715.3,673.4,716.8z"/>
				<path fill="#1273BA" d="M701,647.3c-6.8-1.7-8.4-5.5-8.8-7.8l-1.9,2.7c0,0,0,0,0,0.1l-38.5,53c-2-4-3.9-10.1-3.6-19.1l-5.7,0
					c0,0-1.2-17.4,0.2-26.9c0,0,8.3-2.5,8.8-9.5l19.1-3.2l12.6,2.1l0.5-2.5l-13.1-2.2v0l0,0l0,0v0l-21.5,3.6c0,0,1.3,7.2-8.8,9.7
					c0,0-2,17.4-0.2,31.4h5.5c0,0-0.9,12.9,6.5,21.8l1.5-2.1c0,0,0,0,0,0l38.5-53.1c2.6,2.8,6.3,3.9,6.3,3.9
					c1.4,9.5,0.2,26.9,0.2,26.9l-5.7,0c0.7,19.1-8.4,25.3-8.4,25.3l1.4,2.1c10.7-8.6,9.6-24.8,9.6-24.8h5.5
					C703,664.6,701,647.3,701,647.3z"/>
			</g>
		</g>
	</g>
</g>
</svg>
